<svg xmlns="http://www.w3.org/2000/svg" viewBox="0 0 421 438">
  <g fill="none" stroke-width="2">
    <path stroke="#becd7f" d="m359.5 100.8-137-55.5c-4-1.6-5.5-3.2-10.2-1.5C165 60.7 117.6 78 70 94.2" vector-effect="non-scaling-stroke"/>
    <path stroke="#a3ad55" d="M70 94.2q-1 .1-.8.7" vector-effect="non-scaling-stroke"/>
    <path stroke="#ccbf7a" d="M359.1 101.4q-9 2.3-17.5 6.4c-.6.3-1.2.2-1.9.2" vector-effect="non-scaling-stroke"/>
    <path stroke="#f7bd82" d="M246.3 68.7 216 56.2" vector-effect="non-scaling-stroke"/>
    <path stroke="#f7b37d" d="M216 56.2q-1.4-.4-2.7 0Q149.9 79 86.5 101.6" vector-effect="non-scaling-stroke"/>
    <path stroke="#d3c980" d="M86.5 101.5q-8.6-2.6-16.6-7.3" vector-effect="non-scaling-stroke"/>
    <path stroke="#cb5d3f" d="M87.3 102.2q-.7 72.8 0 145.6" vector-effect="non-scaling-stroke"/>
    <path stroke="#c4573c" d="M87.3 247.8V307a1.5 1.4 13.4 0 0 .9 1.3l125.3 62.5" vector-effect="non-scaling-stroke"/>
    <path stroke="#8b8d4b" d="M215.5 372v1" vector-effect="non-scaling-stroke"/>
    <path stroke="#a3a753" d="M215.5 373c-5.5-1.7-11.2-5-16.5-7.8q-17-8.7-68-33.5c-4.5-2.2-8.8-4.9-13.3-6.9q-4.6-2-8.6-4.3-5-2.8-10.1-5c-3.5-1.6-5.9-4.4-10.6-3-2.3.6-5.4-1-7.6-1.6a1.6 1.5 79.6 0 1-.8-.6q-2.9-4.1-7.3-6.6a1.1.8-34.7 0 0-.9 0l-.8.2a.4.4 1.9 0 0-.5.4l-.2 6.2" vector-effect="non-scaling-stroke"/>
    <path stroke="#5e5d3b" d="M70.3 310.5V292" vector-effect="non-scaling-stroke"/>
    <path stroke="#5f643d" d="M69.2 94.9c-.2 23.5.5 46.8.5 70.2q0 63.4.5 126.9" vector-effect="non-scaling-stroke"/>
    <path stroke="#ff8755" d="M191 67.3c-.9 6.7-3 12.4-5.2 18.7-.8 2-.5 4.1 2 4.5" vector-effect="non-scaling-stroke"/>
    <path stroke="#c3513d" d="M187.8 90.5q-8.7 1.2-15 4.8c-4 2.2-3.7 6.3-.1 8.7q2.2 1.5 5 2.3 20.2 5.7 34.5-8.2" vector-effect="non-scaling-stroke"/>
    <path stroke="#ff8755" d="M212.2 98.1q.6 1-.1 3-.7 1.8-2.6 2.8Q189.8 114 170 107q-2.8-1-5.6-3.3a1.1 1 59.1 0 0-1-.2q-4.8.9-6.7 5.5l-.6.8c-3.6 3-3 15.8-2.5 19.1a.6.5-12.5 0 1-.4.6q-.6.2-1 .7" vector-effect="non-scaling-stroke"/>
    <path stroke="#f14438" d="M152.3 130.2 97 106.4" vector-effect="non-scaling-stroke"/>
    <path stroke="#998d4b" d="M358.2 231.5c-.9 0-1 3-1.2 3.8 0 .6-1.4 2.6-1-.3q0-.4-.3 0l-.5.3a1.3.9 77.3 0 0-.3.9l-.2 4.4a.7.6-3.2 0 1-.6.5q-4.7.6-7.3 4.8a1.1 1.1 32.1 0 1-1.5.3q-2.8-1.7-3.3-5 0-.4-.4 0c-2 2.6-1.3 8.4-2.2 9a1.2.7-28 0 0-.4.8l-1 13" vector-effect="non-scaling-stroke"/>
    <path stroke="#ae4a38" d="M338 264v-43.5" vector-effect="non-scaling-stroke"/>
    <path stroke="#ea3c39" d="M338.8 109.3q-5 .6-9.8 3.4" vector-effect="non-scaling-stroke"/>
    <path stroke="#fc805e" d="M238.2 109q17.5 5.8 33.4-2.1 2.2-1.2 3-3 1.9-4.7-4.1-5" vector-effect="non-scaling-stroke"/>
    <path stroke="#c94b3c" d="M270.5 98.8a49.8 49.8 0 0 0-27.8-7.2" vector-effect="non-scaling-stroke"/>
    <path stroke="#ff7c52" d="M246.3 68.7q-1.4 1.3-1.7 3.8l-2 19.1" vector-effect="non-scaling-stroke"/>
    <path stroke="#c95f44" d="M242.7 91.6c-5.2-.6-17-2.3-15.7 6.9" vector-effect="non-scaling-stroke"/>
    <path stroke="#fd9466" d="M227 98.5q-1.6 1.2-.8 2.8 3.8 6.8 12 7.8" vector-effect="non-scaling-stroke"/>
    <path stroke="#ff7c52" d="M238.2 109q-3.5 2.4-2.7 6.3v1c-.4.9-2.3 7.4-1.7 8.5a.9.1 59.3 0 1 .3.7c-1.8 7.8-1.1 17-1.1 25" vector-effect="non-scaling-stroke"/>
    <path stroke="#ec4b3c" d="M233 150.5q-9 4.2-18.6 6.4" vector-effect="non-scaling-stroke"/>
    <path stroke="#c35b42" d="M212.2 98.1q1.2-9.4-7.2-9.1-7.7.3-17.3 1.5" vector-effect="non-scaling-stroke"/>
    <path stroke="#454532" d="M357.8 293.8v6.7" vector-effect="non-scaling-stroke"/>
    <path stroke="#747c45" d="M357.7 300.5q.2 2-1.3 2.8a1 .8 79.9 0 0-.4.7l-.3 4.5a.6.5 2.2 0 1-.6.5q-6.7 0-11.4 3-.9.5-.5.7a.4.3 34.5 0 1 .2.6q-1.5 1.7-3.6 2.6a1 .9 85.4 0 0-.5.7q-.3 1.8-2 1.3" vector-effect="non-scaling-stroke"/>
    <path stroke="#914337" d="M337.3 318q1-21.2.6-42.8" vector-effect="non-scaling-stroke"/>
    <path stroke="#2f3b2d" d="M222.3 390.5Q286.1 362 349.9 333q3.4-1.5 6.9-2.8a.8.7-11.4 0 0 .5-.7l.4-28.9" vector-effect="non-scaling-stroke"/>
    <path stroke="#e00e24" d="M97.1 106.4q-2.4 1-4.8.7a1 .9 23.5 0 0-.9.3c-4.2 4.7-1.7 7.7-1.5 12.7q1 28.6-.1 57.2-.1 2.9.6 7c.4 2.3 1.9 4 2.2 6.8a1.7 1.3-75.1 0 0 .4.8l3.3 3.7a.1.1 90 0 0 .2 0l.1-.1a.2.2-35.3 0 1 .3 0c1.7 3.4 4 6.5 5.7 9.7q2.9 5.4 6.7 10.2 1.2 1.5 4.9 4.6 5.6 4.7 8.2 11.9a1.3 1.3-4.1 0 0 1 .8l6.4 1.3a1.6 1.4-48.3 0 0 1 0q6-2.7 12.4-.7L160 238c4.4 1.2 7.8 2.4 12.5 2q.5 0 1 .3 3.7 1.7 7.8 2.2c5.2.5 9.3 3.8 12.8 7.3a1.6 1-8.6 0 0 .9.4c.6 0 6.6 5.6 7.7 6.4 3.3 2.6 1.6 6.6 5.1 8.5q.5.3.3-.2l-.1-.4q-.2-.4.2-.2 4.2 2.4 7.5 5.9" vector-effect="non-scaling-stroke"/>
    <path stroke="#d30a25" d="M215.7 270.3V289" vector-effect="non-scaling-stroke"/>
    <path stroke="#dd1a2d" d="M215.7 289q-.5.9-.6 2 0 .4-.3.1c-2.3-2.4-5.6-3.8-7.4-5.9-3.2-3.7-5.3-9.6-10.2-11.6-.4-.1-2.3-.4-1.6.6a1 .8-53.3 0 1 0 .8l-.2.7" vector-effect="non-scaling-stroke"/>
    <path stroke="#880925" d="M195.4 275.7q-4.3-5-10.5-5-5.1.2-10.7 2.6-10 4.4-9.9 17.2" vector-effect="non-scaling-stroke"/>
    <path stroke="#e12737" d="M164.3 290.5q-1.3.3-2 1c-1.9 2.2 2.2 12.4 3.5 14.8" vector-effect="non-scaling-stroke"/>
    <path stroke="#d70c25" d="M165.8 306.3q-1.5 3.1-2.7.4a1.8 1.2-62.1 0 1 0-.9q.3-2.6-1.6-4.2-.4-.3-.5-.7-1.3-3.3-3.8-5.7c-1.4-1.3-3.1-1.3-5-1.6a1.5 1.4 74.1 0 1-.7-.5c-3.1-3.8-11-9.3-15.8-9.3a.8.7 18.3 0 0-.6.2l-.2.3a.5.5-52.4 0 1-.7 0c-1.2-1-9.2 1.8-12 2.6a3.2 3.2-41.9 0 1-2.2 0q-6.3-2.6-10.8-7.8a2 1.4-79.1 0 1-.4-1q-.3-1.5-1.3-2.1a4 3.9-86.3 0 1-1.3-1.6q-1.2-2.4-1.7-2.5l-.5-.2q-.7-2.2-2.2-4c-1.8-2-2.4-4-4-6a1.9 1.4-72.8 0 1-.3-1q-.2-1.7-1.8-2.3a1 1-88.6 0 1-.6-.7c-.4-1.4-3.2-2-3.4-.3a.6.6 87.8 0 1-.5.6q-2 .4-2 2c0 5.7 0 2.1-.5 1-2-3.8-1-9-1.4-13.3" vector-effect="non-scaling-stroke"/>
    <path stroke="#485b38" d="m70.3 310.5.2 8.4a1 .8 15.3 0 0 .5.7l144.7 73.7" vector-effect="non-scaling-stroke"/>
    <path stroke="#020b1d" d="M222.3 390.5c-.3.8-.7 1.3-1.4 1.4-.3 0-.3 0 0 .2.9.2 1.5.5 1.9 1 .2.2.1.6 0 .8-.4.3-5 5.7-5.2 5.7-.3 0-.5.2-.6.4a110 110 0 0 0-1.7 26.7" vector-effect="non-scaling-stroke"/>
    <path stroke="#d5132a" d="M166.8 307.8q.2 3 4.7 7.7l.8.7q1 1 2.3 1.4.5.1.8.5 1.9 2 4.6 2.6a1.3 1.2-9.3 0 1 .7.5c3.3 4.8 8.3 8.2 11.8 12.7q3.9 5 8.1 9.9a.1.1 61.5 0 1 0 .2h-.2a.2.2-29.8 0 0 0 .3q3.7 3.9 7.2 8 .8 1 3.4 2.7c1.5 1 2 2.9 4.7 1.8" vector-effect="non-scaling-stroke"/>
    <path stroke="#a50024" d="M337.9 275.2q-2.9 1.2-5 3.7a.9.8 55.6 0 0 0 .8q.7 1.8-1 2-.4 0-.8.3l-10.9 6.6a1.7 1.7 88.1 0 0-.6.7l-.6 1.2a1.2 1.1 1.9 0 1-.7.6q-13.4 4.1-25.3 11.6a1 .8 34.9 0 1-.8 0c-2.2-.7-5.4 2.8-7 4.2a.7.5 62.3 0 0 0 .7c.5 1.5-14.2 12-16.2 13q-7.3 3.4-14.2 7.5-.4.2-.7.7c-.8 1.4-2.6 1.7-3.6 2.3q-6.5 4.6-11.6 10.6c-2.6 3-6 4.8-8 8.8l-.7.7c-3.1 2.5-6 11-8.6 15.7q-.5 1 .4 2.1" vector-effect="non-scaling-stroke"/>
    <path stroke="#6d0122" d="M260.5 270.2q-6-.4-11.3 1.2-1.9.6-2.5 2.4-5 14.6.8 28.2" vector-effect="non-scaling-stroke"/>
    <path stroke="#bd1533" d="m247.5 302-2.3 1.6a.6.5-29.2 0 0-.3.6q2.2 5 5.5 9.5a1.6 1-1 0 0 .7.5l3.4 1h1q1.4-.2 2 1.2.9 1.8 4.5-.2 17.2-9.3 15.7-29.5-.2-2-1.7-1" vector-effect="non-scaling-stroke"/>
    <path stroke="#6d0122" d="M276 285.8q-1-10.2-10-14.3" vector-effect="non-scaling-stroke"/>
    <path stroke="#768b48" d="M215.7 393.3q0-1-.2-1.6l-.2-1q.8-8.8.2-17.7" vector-effect="non-scaling-stroke"/>
    <path stroke="#d50620" d="M215.8 263v7.3" vector-effect="non-scaling-stroke"/>
    <path stroke="#d82033" d="m294.4 208.1 4.4-2.6c6.9-4 11.1-11.7 12.6-19.4a.8.7-70 0 0-.4-.8q-1.1-.7-2.5-.6" vector-effect="non-scaling-stroke"/>
    <path stroke="#870925" d="M308.5 184.8q1.6-12.7-8.3-20" vector-effect="non-scaling-stroke"/>
    <path stroke="#d70b23" d="M300.2 164.8q1.6-1.2 2.6-3a.3.3 34 0 1 .4 0c1 .7 1.8-4.4 2-5a.7.6 1.8 0 1 .6-.5q.6 0 .7-.7c2-7.2 6-12.6 9.4-19.2q2.2-4.1 5.1-7.9c1-1.1 2.5-1.5 2.9-3.3q0-.5.4-.9l6.4-7.8a.5.5 38.6 0 0-.1-.7q-1.4-1.1-1.6-3.1" vector-effect="non-scaling-stroke"/>
    <path stroke="#780120" d="M266 271.5q-2.6-1.2-5.5-1.3" vector-effect="non-scaling-stroke"/>
    <path stroke="#bd0123" d="m260.5 270.2-5-.4q-.4 0-.9-.4-1.8-1-3.6 0a1.9 1.3-52 0 1-.9.4c-1 0-5.2-.6-4 1.6a1.2.8 49.8 0 1 0 1q-.4 1-1.7 1a1 .8 14.7 0 0-.8.3L238 281a1.2 1-69.1 0 1-.7.5h-.6a1 1 12.6 0 0-.8.5c-3 5.2-6.8 9.2-8.4 15.6-1.1 4.4-2.7 8-4 12.2q-.2.4.3.3h.4q.4-.2.2.2-3.5 8.5-8.5 16.2" vector-effect="non-scaling-stroke"/>
    <path stroke="#d21129" d="M215.8 326.5V289" vector-effect="non-scaling-stroke"/>
    <path stroke="#840121" d="m225.7 225 .8 11.2a.7.6-7.6 0 0 .7.5q13.7-2.4 27.6-8.2a1.3 1.3 77.9 0 0 .8-1.3q-.8-20.7-18.3-32.2" vector-effect="non-scaling-stroke"/>
    <path stroke="#d1182f" d="M283.7 206q4.7 2.9 10.7 2.1" vector-effect="non-scaling-stroke"/>
    <path stroke="#89031f" d="M300.2 164.8q-9.4-7-19.3-1.1a1.5 1.4 86.6 0 0-.6.7q-5.2 12.8-.8 26" vector-effect="non-scaling-stroke"/>
    <path stroke="#da1a2d" d="M279.5 190.5c-6.2 1 2.4 13.3 4.2 15.5" vector-effect="non-scaling-stroke"/>
    <path stroke="#d1031f" d="M283.7 206q-4.4 3-9.7 4.3-3.4.9-5 2-3.5 2.6-5.6 6.7a1.6 1.5-2.2 0 1-.6.7q-1.8.9-3 2.4-.3.5-.4 0l-.4-2.4a.7.7-88.7 0 0-.5-.6c-1.4-.3-.5-3.3.1-4a1.4 1-32.2 0 0 .4-.8V212a.3.3-14.2 0 0-.5-.2q-.9.4-1.9.4a1.1 1 70.8 0 1-.8-.5c-1.4-1.8-2-6.2-4-6.7a1.4 1.2-5.7 0 1-.7-.5c-1.5-2.2-3.8-3.5-5.5-5.3q-3.4-3.3-8.3-4.2" vector-effect="non-scaling-stroke"/>
    <path stroke="#8c031f" d="M237.3 195q-2.6-1.4-3.7 1l-.5.8c-5 4.6-7.2 21.6-7.4 28.2" vector-effect="non-scaling-stroke"/>
    <path stroke="#d1031f" d="M225.7 225v9c0 .4 0 .7-.2.9l-2.2 2.3c-.2.2-.3.5-.3.8 0 2.5-1 4.6-3 6.2-.2.2.1 1.6.2 1.9-3.9 9-4.4 16.9-4.4 16.9" vector-effect="non-scaling-stroke"/>
    <path stroke="#c76350" d="M270.5 98.8q1.6 2.8.7 4.2-1.4 2.3-4 3.2-18.8 7.5-36-2.4-2.6-1.6-4.2-5.3" vector-effect="non-scaling-stroke"/>
    <path stroke="#7b3932" d="M337.3 318 222 369" vector-effect="non-scaling-stroke"/>
    <path stroke="#e02e3c" d="M166.8 307.8q1.2 1 2 2.3c1.6 2.7 3.8 4.1 6.7 5.1" vector-effect="non-scaling-stroke"/>
    <path stroke="#dc3a42" d="M175.5 315.2c2.6 0 5 .8 7.3.4 7.2-1.2 12-10.4 14-16.9a.8.6 30.2 0 0-.3-.7l-1.2-1" vector-effect="non-scaling-stroke"/>
    <path stroke="#861129" d="M195.4 275.7q3.7 11.1-.1 21.3" vector-effect="non-scaling-stroke"/>
    <path stroke="#87293a" d="M195.3 297c-3.9 9.6-13.4 23.8-24.6 11" vector-effect="non-scaling-stroke"/>
    <path stroke="#8b1e34" d="M170.8 308q-6.4-7.6-6.5-17.5" vector-effect="non-scaling-stroke"/>
    <path stroke="#e0474d" d="M170.8 308q-1.3.2-1.5 1.3a1.1.9 35.9 0 0 .3.8q2.5 3 5.9 5.1" vector-effect="non-scaling-stroke"/>
    <path stroke="#781630" d="M276 285.8q1.4 15.6-10.3 24.4c-8.6 6.5-15.3-.2-18.2-8.2" vector-effect="non-scaling-stroke"/>
    <path stroke="#8a172f" d="M308.5 184.8q-1.4 13.6-13.8 19.2-2.3 1.1-4.8.4c-6.3-2-8-7.7-10.4-14" vector-effect="non-scaling-stroke"/>
    <path stroke="#e12737" d="M105.2 261q-.8-1.6-2.2-.8a.8.7 69.4 0 0-.2.8c.8 3.8.9 7.7 2.8 11q2.8 4.9 6.2 7.7 1 .8 1.2 1.6a1.1.8-89.7 0 0 .5.7c2.6 1.2 5.3 3.3 8.8 3 1.7 0 2.7-1.2 4.2-1.8 6.5-2.6 8.6-13.2 10-19.3a.6.5-77.5 0 0-.3-.7l-1.4-.2" vector-effect="non-scaling-stroke"/>
    <path stroke="#8a0a25" d="M134.8 263q2.7-11.8-2.8-21.8-1.3-2.5-4-2.6c-14.4-1-24.8 6.7-22.8 22.4" vector-effect="non-scaling-stroke"/>
    <path stroke="#8d1e34" d="M134.8 263c-2.1 9.2-8.2 26-20.6 15q-7.4-6.7-9-17" vector-effect="non-scaling-stroke"/>
    <path stroke="#e32333" d="M120.5 172c-1.1-1.4-2.2-.5-2.5 1q-2 9.6 1.3 16 1.4 2.7 3.2 5c3.3 4.1 7.6 8.2 13 8.7 11.8 1.1 12.6-6.2 15.5-14.9.1-.2 2.5-11-.5-7.6" vector-effect="non-scaling-stroke"/>
    <path stroke="#910620" d="M150.5 180.3q1.4-10.7-3.7-21.6-1.1-2.3-3.7-2.4Q126 155 120.5 172" vector-effect="non-scaling-stroke"/>
    <path stroke="#921e34" d="M150.5 180.3q-1.4 7-2.8 10.6c-3 7.6-10.3 12.4-17.7 6.5q-12-9.5-9.5-25.4" vector-effect="non-scaling-stroke"/>
    <path stroke="#910620" d="M166.4 223.3q13.2 6.5 27.8 8.8a.5.5-80.8 0 0 .6-.4c1.8-12 0-27-6.6-37.9-1.5-2.6-2.5-4.5-5.7-2.9-10.6 5.5-16.5 18.8-17.3 30.3a2.1 2.1-75 0 0 1.2 2" vector-effect="non-scaling-stroke"/>
  </g>
  <path fill="#8eb154" d="M398.6 85.6 359 101.4c-45.7-18.4-91-37.6-136.6-56.1-4-1.6-5.5-3.2-10.2-1.5-34 28.9-143 51-143 51L33.5 79.5l183.9-65.6Z"/>
  <path fill="#eee9a9" d="m359.1 101.4-20.3 8-92.6-40.7L216 56.2c-1-.3-1.8-.3-2.7 0-42.3 15.2-83.8 31-126 46l-18-7.3c47.6-16.2 95.6-34.2 143-51.1 4.7-1.7 6.3-.1 10.2 1.5 0 0 137.3 55 136.6 56.1z"/>
  <path fill="#ff7d50" d="M191 67.3c-.9 6.7-3 12.4-5.2 18.7-.8 2-.5 4.1 2 4.5-5.8.8-10 2.8-14.3 5.2-3.9 2.2-4.4 5.9-.8 8.3 1.4 1 3.1 1.8 5 2.3 13.4 3.8 32.7-7.6 34.5-8.2 0 0 .4 1.7-.1 3a5.2 5.2 0 0 1-2.6 2.8c-13.1 6.8-27.2 14.6-40.5 9.9-2.6-3-2.5-5.8-4.4-7.4-.3-.2-.8-3-1.1-3-9.8 3.2-5.7 22.3-5.7 22.3-.2.6-3.7 4.7-4.2 5.1l-56.5-24.4-9.8-4.2c40.4-15.8 65.5-24.2 102.4-37.5 0 0 1.5-.6 1.3 2.6z"/>
  <path fill="#ff905a" d="M214.7 56c3 .2 31.6 12.7 31.6 12.7-1 .8-1.5 2-1.7 3.7l-2 19.2c-1.7 21 14 31.4 25.6 45.4-6 2.8-47.3 18.4-53.8 19.9l-60.8-26c1-5.7 2.9-34.7 9.9-27.4 1.9 1.5 4.5 6.6 6.3 7.3 8.5 2.5 35 1 37.6-11.4.9-6.3 3-10-2.6-9.7-7.2-.1-24.6 16-19-3.7 2.3-6.3 3.3-14.5 4.1-21.3 0 0 22-8.8 24.8-8.6z"/>
  <path fill="#ff7d50" d="m246.3 68.7 92.5 40.6-70.6 27.7s-18.3-17.8-22-26.4c10.5.4 13.4 1.2 24-4 1.5-.8 3-1 3.5-2.3 1.2-3.1-.7-4.5-4.7-4.8-7.5-3.1-26.3-7.9-26.3-7.9s-1.4-18 3.5-22.9z"/>
  <path fill="#062024" d="m33.6 79.4 35.6 15.5L71 319.6c-13.1 20-37.1 17-37.1 17z"/>
  <path fill="#041b23" d="m398.6 85.6.4 71.2v94.8l-41.2 42.2.4-62.3 1-130z"/>
  <path fill="#862529" d="M212.2 98.1c-5 8.1-21 12-34.5 8.2-1.9-.5-3.6-1.3-5-2.3-3.6-2.4-4-5.5.1-8.7 9.3-8.1 46.8-11.5 39.3 2.8z"/>
  <path fill="#932e2e" d="M271.6 103c-9.8 9-40.9 11.5-44.6-4.5-3.5-16.7 54.5-4.5 44.6 4.5z"/>
  <path fill="#b8a856" d="M87.3 102.2c-.5 48.5-.5 97 0 145.5 5.7 14.7.9 60.6.9 60.6l125.3 62.5 2 1.2c-79.4 17.3-94.7-57.6-145.4-52.5l.2-15.2V292c-.4-42.3-.6-84.6-.6-127 0-23.3-.7-46.6-.5-70.1Z"/>
  <path fill="#ff905a" d="M227 98.5c1 2.5 2.5 4.3 4.3 5.3 11.4 6.6 23.4 7 36 2 1.6-.6 5.6-3.4 5.4-5.2-.2-1.4-3.1-3.7-3.1-3.7 2.8-.1 6.2 3.9 5 7a6 6 0 0 1-3 3 42.5 42.5 0 0 1-33.4 2.2c-5.5-.7-9.5-3.3-12-7.9-.5-1-.3-2 .8-2.7z"/>
  <path fill="#a9944b" d="m359.1 101.4-1.3 192.3c.5 47-20.5 24.3-20.5 24.3l.7-97.5.5-62.8.3-48.4z"/>
  <path fill="#d9051d" d="M143.2 233.3a642 642 0 0 0 53 10.6c5.5 1.6 9.4 16.4 18.8 25.7l.1 21.7c-2.2-2.4-5.9-4-7.7-6-2.4-3-12.1-9.4-13-9.3 0 0-13.5-5.6-20.2-2.7-6.6 3-10 8.7-9.9 17.2-.9.2-1.5.5-2 1-1.9 2.2 2.2 12.3 3.5 14.7-1 2.2-1.9 2.3-2.7.6v-1c.2-1.7-.3-3.1-1.6-4.2l-.5-.7c-.9-2.2-2.1-4.1-3.8-5.7-1.4-1.3-3.1-1.2-5-1.6l-.7-.5c-11.6-11.3-29.4-6.2-29.4-6.2-.7.3-1.4.2-2 0-10-4.5-30.2-35.5-30.8-27 0 5.8 0 2.2-.6 1.2-2-3.9-1.7-45.3-1.7-45.3 29.5-34 25.3 8.3 56.2 17.5Zm-38 27.7c-.5-1.1-.5-.5-1.4 0h-1c1.9 9.2 8.5 24.5 19.6 24 1.6 0 2.6-1.2 4.1-1.8 4-2.7 7.5-13.5 9.2-19.5l-1-.7s1-15.2-2.6-21.8a4.7 4.7 0 0 0-4.2-2.6c-14.3-1-24.7 6.7-22.7 22.4z"/>
  <path fill="#e20a1f" d="m87.3 102.2 65 28 62.1 26.7c1 37.7.6 112.7.6 112.7-27.9-20-88.5-25.9-128-53.8Zm33.2 69.8c-1.1-1.4-2.2-.5-2.5 1a24.1 24.1 0 0 0 1.3 16c1 1.8 2 3.4 3.2 5 3.3 4.1 7.6 8.2 13 8.7 11.8 1.1 12.6-6.2 15.5-14.9.1-.2 2.5-11-.5-7.6 1-7-.3-14.2-3.7-21.5a4 4 0 0 0-3.7-2.4c-11.4-.8-19 4.4-22.6 15.7zm45.9 51.3a96 96 0 0 0 27.8 8.8c.3 0 .5-.1.6-.4 1.8-12 0-27-6.5-37.9-1.6-2.6-2.6-4.5-5.8-2.9-10.6 5.5-16.5 18.8-17.3 30.3 0 .9.4 1.7 1.2 2z"/>
  <path fill="#d9051d" d="m338.8 109.3-.3 48.4-61.2 79.7c-28.1 13.4-39.2-40-39.2-40-3.7-1.4-5-.6-5-.6l-5.9 40L215.5 372l-1-215.1z"/>
  <path fill="#3f0121" d="M150.5 180.3q-1.4 7-2.8 10.6c-3 7.6-10.3 12.4-17.7 6.5q-12-9.5-9.5-25.4 5.5-17 22.6-15.7 2.6.1 3.7 2.4 5.1 10.9 3.7 21.6Z"/>
  <path fill="#c80121" d="m338.5 157.7-.5 62.8s.4 38.8-.1 54.7c-5.2 19.8-17 32.8-31.7 34-34.5 37.7-75.8 21.5-90.5 47.6l-.6-67.8v-19.4s10.7-32 11.4-33.4c9.5-1 20.7-4.6 28.3-7.7.5-.2.9-.7.8-1.2-.8 1.2-1-1.3 28-21.3 0 0 27.6-16 55-48.3z"/>
  <path fill="#390021" d="M300.2 164.8q9.9 7.3 8.3 20-1.4 13.6-13.8 19.2-2.3 1.1-4.8.4c-6.3-2-8-7.7-10.4-14q-4.4-13.2.8-26a1.5 1.4 86.6 0 1 .6-.7q9.9-5.8 19.3 1Z"/>
  <path fill="#dc5253" d="M120.5 172q-2.5 15.9 9.5 25.4c7.4 6 14.8 1 17.7-6.5q1.4-3.6 2.8-10.7c3-3.4.6 7.4.5 7.6-2.9 8.7-3.7 16-15.5 14.9-5.4-.5-9.7-4.6-13-8.7q-1.8-2.3-3.2-5-3.3-6.4-1.3-16c.3-1.5 1.4-2.4 2.5-1ZM283.7 206c-1.8-2.2-10.4-14.5-4.2-15.5 2.3 6.2 4 12 10.4 13.9 1.7.5 3.3.3 4.9-.4a22.3 22.3 0 0 0 13.7-19.3c1 0 1.8.1 2.5.6.3.1.4.4.4.7a28.4 28.4 0 0 1-12.6 19.5c-4.6 3.5-10.8 3-15.1.5z"/>
  <path fill="#3f0121" d="M166.4 223.3a2.1 2.1-75 0 1-1.2-2c.8-11.6 6.7-25 17.3-30.4 3.2-1.6 4.2.3 5.8 3 6.5 10.8 8.3 25.8 6.5 37.8a.5.5-80.8 0 1-.6.4q-14.6-2.3-27.8-8.8ZM255.6 227.3c0 .5-.3 1-.8 1.2-9.2 3.8-18.4 6.6-27.6 8.2-.4.1-.7-.1-.8-.5-1.3-13.6 2-37.7 7.2-40.2 10.8-5.3 21.7 24.8 22 31.2z"/>
  <path fill="#350121" d="M134.8 263c-2.1 9.2-8.1 26.3-20.5 15.2-5-4.4-8-10.3-9-17.2-2-15.8 8.3-23.3 22.6-22.4 1.9 0 3.3 1 4.1 2.6 3.7 6.6 4.6 14 2.8 21.8z"/>
  <path fill="#031120" d="M70.1 319.5S291.8 391 215.3 432.7L34 336.5s24-3.2 36.2-17z"/>
  <path fill="#c80121" d="M87.3 247.8c9.5 18 32 37.3 32 37.3 18.4-1.4 27.5 1.5 37.9 10 2.6 2 6.7 8.3 9.6 12.6a21 21 0 0 0 13.2 13c.3 0 .5.2.7.5 9.6 10.1 19 21.7 27 31.2.4.6 8 4.4 8 4.4l-.2 15.2-127.8-63.9s-.4-40.7-.4-60.4z"/>
  <path fill="#dc5253" d="M105 259.3c1 7 4.3 14.2 9.2 18.6 12.4 11 18.5-5.7 20.6-14.9l1.4.2c.3 0 .4.4.4.8-3.3 8.6-5.2 20.3-14.2 21-5 .6-8.1-2.2-10.6-5.3a28.5 28.5 0 0 1-6.2-7.7c-1.9-3.3-2-7.2-2.8-11 1-1.5 2.2-1.7 2.2-1.7z"/>
  <path fill="#000419" d="M399 251.6v95.7c0 .2-.2.5-.5.6l-182.8 84.7-.4.1.3-39.4s91.8-41 134.3-60.4l6.9-2.8c.3 0 .5-.4.5-.7l.5-35.6c4.5-14.5 26.6-43.6 41.1-42.2z"/>
  <path fill="#28011f" d="M260.5 270.2q2.9.1 5.5 1.3 9 4.1 10 14.3 1.4 15.6-10.3 24.4c-8.6 6.5-15.3-.2-18.2-8.2q-5.7-13.6-.8-28.2.6-1.9 2.5-2.4 5.4-1.6 11.3-1.2Z"/>
  <path fill="#310021" d="M195.3 297c-3.9 9.6-13.4 23.8-24.6 11-4.2-5-6.4-10.9-6.4-17.5 0-8.5 3.3-14.3 10-17.2 3.6-1.6 7.2-2.5 10.6-2.6 14.2.6 14 16.4 10.4 26.3z"/>
  <path fill="#d9051d" d="m215 288.6.8 38v30.1c-3.2-.8-5.9-2-8.2-4.3 0 0-37.6-30.3-40.8-44.6a10 10 0 0 1 2 2.3c1.6 2.7 3.8 4.1 6.7 5.1 2.6 0 5 .8 7.3.4 7.2-1.2 12-10.4 14-16.9.1-.2 0-.5-.3-.7l-1.2-1a31 31 0 0 0-.5-21.3c1-.3 16.4 10.8 20.3 12.9z"/>
  <path fill="#ab0024" d="m337.9 275.2-.6 42.8-121.8 54 .2-15.2c24.1-41 84.8-53.2 122.2-81.6z"/>
  <path fill="#dc5253" d="M246.8 300.3c3 8 10.3 16.4 19 10 7.7-6 11.2-14.1 10.2-24.6 1-.6 1.6-.3 1.7 1 2 19.4-11.4 33.1-20.9 30.7-8.4-.2-9.7-8.3-11.9-13.2 0-.2 0-.5.3-.6z"/>
  <path fill="#e43b46" d="M175.5 315.2c-117-210.1-58.5-105 0 0z"/>
  <path fill="#dc5253" d="m195.3 297 1.2 1c2.8 1.8-4.5 18.2-16.4 18.5-9.2.3-11.5-4.9-14.3-10.2-8.2-16.9-2.3-15.6-1.5-15.8 11.7 40.6 27.1 16.1 31 6.5z"/>
  <path fill="#5e7140" d="m357.8 293.8-.5 35.6c0 .3-.2.6-.5.7l-6.9 2.8a25769 25769 0 0 1-127.6 57.6l-6.6 2.8-.2-21.3 6.5-3 115.3-51c7-8.7 20.4-14.2 20.5-24.3z"/>
  <path fill="#8da550" d="m215.5 372 .1 21.3-145.5-73.8c-.3-.2 0 0 0 0s6.9-8.8 17.6-11.4z"/>
</svg>
